<svg version="1.1" id="Layer_1" xmlns="http://www.w3.org/2000/svg" xmlns:xlink="http://www.w3.org/1999/xlink" x="0px" y="0px"
	 width="100%" viewBox="0 0 583 555" enable-background="new 0 0 583 555" xml:space="preserve">
<path fill="#000000" opacity="1.000000" stroke="none" 
	d="
M348.000000,556.000000 
	C233.333328,556.000000 119.166641,555.980225 5.000096,556.095215 
	C1.576129,556.098694 0.903438,555.423584 0.905447,551.999939 
	C1.012401,369.666656 1.012401,187.333328 0.905447,5.000055 
	C0.903438,1.576405 1.576426,0.903609 5.000052,0.905508 
	C196.666672,1.011792 388.333344,1.011792 579.999939,0.905508 
	C583.423584,0.903609 584.096558,1.576405 584.094543,5.000055 
	C583.987610,187.333328 583.987610,369.666656 584.094543,551.999939 
	C584.096558,555.423584 583.424255,556.101685 579.999817,556.096130 
	C502.833405,555.970886 425.666656,556.000000 348.000000,556.000000 
z"/>
<path fill="#FFFFFF" opacity="1.000000" stroke="none" 
	d="
M105.978836,264.993469 
	C104.787323,266.422668 105.022850,268.668365 102.447029,269.029083 
	C102.145805,265.106354 99.779350,262.153046 97.594116,259.070465 
	C90.923492,249.660583 91.788528,240.337936 96.738190,230.233307 
	C100.148560,223.271118 101.734772,215.395935 103.937393,207.870575 
	C104.896645,204.593262 105.680962,203.370987 110.045609,203.704758 
	C121.476997,204.579010 133.019562,203.990158 144.517746,204.012238 
	C145.937637,204.014954 146.415421,203.671158 147.145096,202.097519 
	C155.102539,184.935867 160.759842,166.869125 167.939819,149.402420 
	C170.007126,144.373291 171.772644,141.679932 177.529648,140.467209 
	C184.500229,138.998840 191.675232,137.070389 198.159195,134.125473 
	C207.642181,129.818466 217.901855,128.452988 227.484573,124.784912 
	C228.405212,124.432518 229.382828,123.550156 230.213837,124.089622 
	C235.921890,127.795105 242.563477,129.546860 248.316757,133.354904 
	C253.579636,136.838348 259.960388,138.595856 265.731598,141.358246 
	C272.124481,144.418213 278.399139,147.727417 284.696686,150.983337 
	C287.996338,152.689301 291.679047,153.482620 294.646088,156.060760 
	C297.381042,158.437271 300.959412,158.446671 304.202026,156.935242 
	C314.752197,152.017715 326.337372,150.371140 337.155518,146.357269 
	C352.800323,140.552567 369.024933,136.587189 384.740723,130.946915 
	C395.109467,127.225655 406.004669,124.863731 416.294556,120.803291 
	C418.737701,119.839203 419.977722,120.537811 420.968719,122.169289 
	C425.374878,129.423050 430.510010,136.155029 435.463806,143.022217 
	C436.959412,145.095520 438.279633,147.029144 433.930389,148.165573 
	C426.996979,149.977188 420.025879,152.103546 413.559937,155.138901 
	C403.597748,159.815598 392.745575,161.670044 382.676086,165.806931 
	C372.509003,169.983932 361.637360,172.307785 351.676270,176.629517 
	C337.393005,182.826431 322.125244,186.185883 308.113800,192.957565 
	C302.746338,195.551651 298.269348,191.995346 294.234833,189.777161 
	C287.275909,185.951187 279.652893,183.649551 272.812469,179.836182 
	C261.862000,173.731583 249.925339,169.768570 239.075500,163.535858 
	C232.378723,159.688889 225.837082,159.042984 218.238281,161.799133 
	C209.532684,164.956696 201.143188,169.197983 191.950851,170.893295 
	C189.908463,171.269974 189.255356,172.371735 188.568710,173.891479 
	C184.033966,183.928284 180.215363,194.313370 175.630081,204.257034 
	C172.265793,211.552856 169.907852,219.233719 166.322540,226.410019 
	C165.515442,228.025497 164.558029,228.006729 163.242554,228.003967 
	C150.412064,227.977036 137.579361,228.067474 124.753838,227.804840 
	C123.178741,227.772568 122.475105,227.559219 122.001747,229.156036 
	C119.399178,237.935287 113.462448,245.262024 111.158051,254.207626 
	C110.189781,257.966431 108.191071,261.376129 105.978836,264.993469 
z"/>
<path fill="#FFFFFF" opacity="1.000000" stroke="none" 
	d="
M292.845764,284.982788 
	C298.156525,282.997711 303.389313,281.583405 308.006683,279.245911 
	C318.004333,274.184723 328.839996,271.387360 338.948517,266.672241 
	C346.882538,262.971436 355.222076,260.127014 363.437439,257.051575 
	C365.515106,256.273804 366.540344,255.556915 367.206451,252.998260 
	C369.708191,243.388519 369.218048,233.304169 372.079895,223.832764 
	C373.703461,218.459564 374.916595,213.019104 375.938171,207.538376 
	C376.881927,202.475250 377.735565,197.329590 377.854950,192.202255 
	C377.931152,188.929153 379.612793,187.851135 381.998901,187.046280 
	C389.129333,184.641129 396.507874,182.837997 403.398956,179.887650 
	C413.901184,175.391190 424.770844,172.126694 435.611664,168.683243 
	C438.005127,167.922989 440.038208,166.096680 442.364716,165.042603 
	C446.997131,162.943787 449.701202,164.461395 452.758057,168.819855 
	C456.762115,174.528778 460.701874,180.452942 465.774414,185.434372 
	C467.307007,186.939468 468.068970,189.229324 469.335114,191.421463 
	C460.141785,193.872253 452.079346,198.179947 443.643402,201.480408 
	C433.043610,205.627457 423.170319,211.376175 412.374786,214.967148 
	C408.074707,216.397507 409.791656,220.348785 409.216949,222.891754 
	C406.193665,236.268921 403.743103,249.782303 401.382782,263.298889 
	C400.519958,268.239838 399.970581,273.264984 399.314606,278.220673 
	C398.821655,281.944977 396.804596,282.964325 394.429810,283.767761 
	C381.102448,288.276672 368.293030,294.135162 355.273621,299.369812 
	C347.702057,302.414001 339.612915,304.437531 332.510406,308.360504 
	C321.743195,314.307709 309.261383,316.089539 298.923126,322.914795 
	C297.506927,323.849731 295.623535,324.299744 293.899902,324.509460 
	C283.971252,325.717377 279.926849,333.745056 275.071198,340.723022 
	C268.933563,349.543304 262.934326,358.464844 257.084076,367.478149 
	C253.701996,372.688873 250.230423,377.793304 246.218414,382.549683 
	C245.198471,383.758850 245.253952,385.558289 242.748764,384.434021 
	C240.625854,383.481293 238.073425,383.147827 238.051910,380.298035 
	C237.964020,368.654877 235.019928,357.456848 233.097916,346.092407 
	C232.661880,343.514374 232.951294,341.022583 234.917282,338.316711 
	C241.927200,328.668579 248.589935,318.726715 254.741623,308.509216 
	C260.016113,299.748657 267.256989,293.888000 276.888062,291.114563 
	C282.302155,289.555450 286.775574,285.792206 292.845764,284.982788 
z"/>
<path fill="#FFFFFF" opacity="1.000000" stroke="none" 
	d="
M212.733215,429.694153 
	C209.251480,434.252319 205.809647,438.385162 202.811661,442.818146 
	C200.726059,445.902039 199.488037,446.005157 197.307114,442.889587 
	C192.903702,436.599060 190.650055,428.986664 185.836975,423.131042 
	C181.704041,418.102875 182.978104,415.162994 186.870560,411.063324 
	C190.849579,406.872559 193.587982,401.521454 197.454224,397.201630 
	C202.463791,391.604370 199.402939,385.861389 198.549347,380.168274 
	C196.602875,367.186157 193.758606,354.359863 191.853683,341.357117 
	C190.964706,335.288971 190.994003,329.132751 189.248062,323.076569 
	C187.763184,317.925995 191.897568,313.424377 194.503799,309.449799 
	C197.778275,304.456177 200.370422,299.139374 203.401108,294.051086 
	C208.955841,284.725189 214.229767,275.232391 219.670593,265.838074 
	C223.306656,259.559906 226.728851,253.143082 230.244858,246.817230 
	C232.803085,242.214615 236.269958,240.084351 240.548019,239.123749 
	C249.676773,237.073929 257.707214,232.283447 266.592499,229.559433 
	C282.296234,224.745056 297.562653,218.520370 312.925446,212.713120 
	C323.561707,208.692581 334.387634,205.203094 345.034485,201.225128 
	C346.595154,200.642029 347.098419,199.289291 348.762543,198.806152 
	C354.021362,197.279312 354.105438,197.514664 354.146881,202.700287 
	C354.203857,209.821487 353.053711,216.797104 351.730865,223.629059 
	C350.892456,227.959045 349.993683,232.374847 349.045349,236.731216 
	C348.747314,238.100311 347.730316,238.146332 346.975311,238.447952 
	C336.420197,242.664200 325.853058,246.852509 315.243591,250.929840 
	C302.892975,255.676315 290.264191,259.785309 278.210388,265.184998 
	C271.031067,268.401123 263.592346,270.815826 256.334290,273.730072 
	C253.104553,275.026825 250.681915,275.968445 248.888321,279.365143 
	C245.410950,285.950500 241.036072,292.058105 237.111328,298.412018 
	C231.802490,307.006714 226.529449,315.624359 221.369186,324.308319 
	C220.934677,325.039551 220.500641,325.935211 220.643875,327.264313 
	C221.876770,338.706421 224.264786,349.925354 226.583694,361.169922 
	C229.157455,373.650238 231.500412,386.177948 234.017731,398.670166 
	C234.744873,402.278595 231.758102,404.075226 230.105484,406.160217 
	C224.117767,413.714600 218.361862,421.418182 212.733215,429.694153 
z"/>
<path fill="#FFFFFF" opacity="1.000000" stroke="none" 
	d="
M360.824982,86.984047 
	C369.926819,83.533432 379.389099,82.774590 388.010803,79.106209 
	C388.928284,78.715836 390.098145,78.791641 391.230927,80.290955 
	C396.711700,87.545135 400.713928,95.697090 405.664978,103.261742 
	C406.625854,104.729889 406.040833,105.516464 403.924103,106.112427 
	C388.084167,110.572159 372.096436,114.681129 356.620605,120.204567 
	C344.336121,124.588982 331.779633,127.745178 319.330109,131.412933 
	C315.697357,132.483185 312.392029,134.658676 308.664581,135.832077 
	C304.133118,137.258591 300.263794,136.220871 296.392029,134.047928 
	C282.660248,126.341187 268.131622,120.237167 253.838882,113.737534 
	C248.600006,111.355148 243.714096,108.334312 238.557159,105.863983 
	C231.013794,102.250488 224.333786,104.271706 217.306366,106.297462 
	C204.095703,110.105644 190.933105,114.096878 177.639740,117.590477 
	C174.248138,118.481819 170.753876,119.303352 167.288483,119.908028 
	C161.203033,120.969856 158.396332,125.056763 157.389862,130.334824 
	C156.082428,137.191116 153.198807,143.425583 150.566284,149.725327 
	C147.150375,157.899689 145.151840,166.510712 142.035202,174.752945 
	C140.564011,178.643707 138.656464,182.368668 136.973160,186.180450 
	C136.359818,187.569366 135.335007,188.030579 133.849045,188.020081 
	C127.016853,187.971771 120.183578,187.948761 113.351891,188.024872 
	C110.844345,188.052826 110.657936,187.099884 111.424873,184.996307 
	C114.367142,176.926132 116.837982,168.666611 120.132408,160.747177 
	C123.447006,152.779297 125.313408,144.364670 128.605026,136.379715 
	C132.897659,125.966438 135.998108,115.094872 139.242218,104.289543 
	C139.967667,101.873299 141.656281,99.396835 142.591309,96.817955 
	C143.470261,94.393707 144.929642,93.392784 147.564499,92.619728 
	C157.084534,89.826591 166.496613,86.763863 176.280075,84.859039 
	C182.720184,83.605171 189.191086,82.307976 195.428940,80.049370 
	C207.670639,75.616905 220.555817,73.616409 233.114670,70.375008 
	C234.622803,69.985764 236.150452,69.673065 237.453598,70.232750 
	C242.456284,72.381348 247.907104,74.024742 252.178177,77.213036 
	C258.657867,82.049995 266.568298,83.823006 273.088226,88.127342 
	C281.490631,93.674469 291.660828,95.636971 299.581390,101.914391 
	C304.350189,105.693901 308.870087,102.936920 313.131897,101.285255 
	C322.116669,97.803223 331.399597,95.300636 340.722473,93.239922 
	C347.536865,91.733665 353.456268,87.811707 360.824982,86.984047 
z"/>
<path fill="#FFFFFF" opacity="1.000000" stroke="none" 
	d="
M261.197510,202.039917 
	C262.146637,202.826477 262.907104,202.998169 263.783112,203.015747 
	C264.691772,203.033997 265.768280,202.670120 266.015045,204.211441 
	C266.289886,205.928391 264.948181,206.085815 263.996735,206.455078 
	C256.561401,209.340897 249.010010,211.948730 241.681580,215.080231 
	C237.973785,216.664597 234.040298,217.722687 230.291107,218.697433 
	C221.737823,220.921173 217.809082,226.927917 214.379089,234.093338 
	C207.906845,247.614105 200.422333,260.626190 193.693451,274.004486 
	C187.743134,285.834839 181.605209,297.609375 175.476700,309.314972 
	C169.919037,319.930267 164.972504,330.957703 158.469055,341.111542 
	C156.323807,344.460968 154.581161,348.124023 153.087799,351.818848 
	C151.699265,355.254272 149.015625,353.880219 148.385376,352.491089 
	C145.257477,345.597015 140.961548,339.515869 136.234146,333.734802 
	C132.000244,328.557190 135.472900,324.020325 137.656097,320.063629 
	C145.817856,305.271729 152.564606,289.736481 160.850159,275.082306 
	C166.138733,265.728699 169.566513,255.530518 175.455353,246.432816 
	C178.232727,242.142044 180.764771,237.136810 182.436630,231.817627 
	C183.739853,227.671249 186.978149,223.845795 188.900024,219.581573 
	C191.807144,213.131317 195.468964,206.997787 198.056763,200.432739 
	C201.588394,191.473221 209.377792,188.792206 217.298737,186.044968 
	C218.189789,185.735901 219.194778,186.039642 220.143799,185.445190 
	C227.453918,180.866043 232.596176,184.967667 238.251587,189.360794 
	C242.736176,192.844421 248.080780,195.439011 253.392151,197.551987 
	C256.224121,198.678604 257.956543,201.185394 261.197510,202.039917 
z"/>
<path fill="#FFFFFF" opacity="1.000000" stroke="none" 
	d="
M452.934998,290.381226 
	C454.728149,290.823853 456.957245,287.924255 457.702301,289.745148 
	C458.673279,292.118195 459.545013,295.036011 456.927216,297.662750 
	C450.797241,303.813568 444.884216,310.185516 439.027191,316.599213 
	C437.868073,317.868500 436.419067,317.784119 435.138977,318.397186 
	C424.429291,323.526489 412.988312,327.003204 402.368774,332.203094 
	C393.730927,336.432648 384.166351,338.304596 375.959320,343.469727 
	C373.251129,345.174103 370.876617,343.354004 369.018097,341.480804 
	C364.477509,336.904266 357.889160,335.462158 353.295380,330.920166 
	C351.565613,329.209900 349.655182,331.758301 348.525330,332.419037 
	C341.396606,336.588196 332.931335,337.787994 326.113586,342.169922 
	C317.063660,347.986450 306.473572,350.180359 297.331146,355.738159 
	C292.198120,358.858643 286.163544,360.496887 280.533051,362.797821 
	C278.619781,363.579651 276.723969,362.847046 275.535217,361.695496 
	C273.824310,360.038239 276.295319,358.998749 276.744598,357.622955 
	C278.617218,351.888611 283.533112,348.224670 286.209961,342.953064 
	C289.633636,336.210632 296.474640,332.734589 303.295441,330.446350 
	C318.373260,325.388153 332.130890,317.133514 347.460266,312.702209 
	C350.290253,311.884155 352.642242,309.578766 355.646667,308.505829 
	C357.846832,307.720154 359.706787,308.298065 360.507294,309.327728 
	C364.614746,314.611023 371.280365,316.299591 375.864319,320.623657 
	C379.912476,324.442291 382.547241,323.435822 386.793121,320.933044 
	C392.532990,317.549561 399.470673,316.209137 405.242493,312.866425 
	C414.630219,307.429565 425.120941,304.512482 434.479614,299.026672 
	C440.251740,295.643188 446.701080,293.415009 452.934998,290.381226 
z"/>
<path fill="#FFFFFF" opacity="1.000000" stroke="none" 
	d="
M290.811523,78.310760 
	C284.967194,73.826370 278.329224,71.542999 272.349579,68.057823 
	C271.392792,67.500160 269.604584,67.303024 269.449860,66.645355 
	C269.065125,65.009872 266.306427,65.131645 267.015350,62.944588 
	C267.594391,61.158310 269.088715,61.255058 270.533020,60.851124 
	C275.469421,59.470512 280.579071,58.890366 285.435211,57.066189 
	C298.690735,52.086834 313.038696,50.680687 326.172546,45.690815 
	C335.731262,42.059235 345.938965,41.417564 355.276825,37.372906 
	C360.514191,35.104378 363.667145,38.414429 365.857025,42.622955 
	C368.651917,47.994259 371.632965,53.153831 375.779480,57.672295 
	C377.346100,59.379486 378.239899,61.053127 373.910889,62.309975 
	C363.158997,65.431587 352.601135,69.227043 341.741943,72.117020 
	C328.773865,75.568237 315.921417,79.478226 303.125977,83.527824 
	C301.176788,84.144714 300.394501,83.022057 299.245636,82.574120 
	C296.431274,81.476761 293.785675,79.946503 290.811523,78.310760 
z"/>
<path fill="#FFFFFF" opacity="1.000000" stroke="none" 
	d="
M251.368164,402.244812 
	C260.462738,398.532532 270.063690,396.272675 277.694031,391.103760 
	C283.040466,387.482056 288.323975,382.736603 292.932465,377.641418 
	C297.393097,372.709686 302.042633,367.863556 307.426392,363.805817 
	C309.925537,361.922211 312.510559,359.778046 314.118408,357.172882 
	C316.626373,353.109314 320.566895,351.726318 324.441650,349.814209 
	C331.091095,346.532867 337.636597,343.021881 344.079132,339.350159 
	C346.385223,338.035919 347.999115,338.362854 350.183472,339.564148 
	C354.323822,341.841125 357.008453,346.041382 361.818787,347.557922 
	C364.108673,348.279816 362.905334,350.207367 361.022980,350.964264 
	C351.404144,354.832092 342.066040,359.439911 331.957916,362.022400 
	C328.075836,363.014221 325.475342,365.659393 322.850616,368.536865 
	C316.247681,375.775665 309.368469,382.761871 302.632233,389.879822 
	C297.840515,394.943054 293.495331,400.516479 288.231079,405.021057 
	C282.606018,409.834381 275.474701,412.359833 268.570068,414.973389 
	C255.425797,419.948669 242.903824,426.390686 229.725815,431.325012 
	C226.950485,432.364227 224.254379,434.449799 221.314484,435.667511 
	C220.288574,433.434998 222.164856,432.151154 222.808594,430.393433 
	C225.674667,422.567566 232.759171,417.375458 235.432312,409.393860 
	C236.216019,407.053802 239.857162,407.065247 242.181946,406.137939 
	C245.150330,404.953888 248.218475,404.022003 251.368164,402.244812 
z"/>
<path fill="#FFFFFF" opacity="1.000000" stroke="none" 
	d="
M429.000793,232.017670 
	C429.923004,230.384781 430.457916,229.243484 432.431335,228.755096 
	C442.369049,226.295654 451.139496,220.786942 460.801117,217.453659 
	C466.507019,215.485092 472.837952,214.602722 477.577332,210.182129 
	C478.054016,209.737488 479.145050,209.822632 480.028961,210.857239 
	C485.669739,217.459717 490.213470,224.949631 496.470703,231.061066 
	C497.561279,232.126236 498.200806,233.787750 498.704498,235.289291 
	C499.561188,237.843170 499.005219,239.196121 496.050323,240.668076 
	C485.740204,245.803940 474.673859,249.009689 464.258911,253.864944 
	C455.354706,258.015900 446.090973,261.414886 436.899109,264.917877 
	C434.178192,265.954834 432.321472,268.520294 429.330170,268.863556 
	C426.619263,269.174591 423.431122,269.592896 424.055389,265.333496 
	C425.387360,256.245850 426.184753,247.070068 428.323822,238.107254 
	C428.768860,236.242722 426.915985,234.110733 429.000793,232.017670 
z"/>
<path fill="#FFFFFF" opacity="1.000000" stroke="none" 
	d="
M453.096375,289.998535 
	C448.762878,289.228149 445.321350,292.094269 441.562927,293.346466 
	C430.015198,297.193848 419.322418,303.312958 407.679108,306.968903 
	C400.652222,309.175262 394.495087,313.260071 387.426971,315.490662 
	C382.891693,316.921906 382.087311,313.095581 379.694153,311.842957 
	C376.664368,310.257172 374.670227,306.776001 370.944519,305.985687 
	C369.999817,305.785248 370.087830,305.152466 370.014771,304.527954 
	C369.894165,303.496796 370.503113,303.318848 371.386902,302.960236 
	C384.975098,297.446136 398.511780,291.799774 412.053253,286.179932 
	C425.769135,280.487823 439.554993,274.933746 453.126984,268.917786 
	C464.109375,264.049683 475.253326,259.698212 486.473358,255.454300 
	C488.396454,254.726883 490.656219,253.051468 492.699890,251.720993 
	C493.513306,251.191437 494.391418,250.301392 494.937225,251.881424 
	C495.209534,252.669693 495.544281,253.136612 494.517609,254.355026 
	C489.072327,260.817444 483.620331,267.392944 479.193390,274.560883 
	C474.877869,281.548431 467.552094,282.187622 461.200317,284.900787 
	C458.111847,286.220001 454.856445,287.046936 452.704529,289.793823 
	C453.023621,290.094299 453.054047,290.011322 453.096375,289.998535 
z"/>
<path fill="#FFFFFF" opacity="1.000000" stroke="none" 
	d="
M402.642761,353.862732 
	C400.882202,358.733856 396.150269,358.333221 392.873627,359.848969 
	C379.692291,365.946533 366.001160,370.871582 353.176086,377.845459 
	C347.189301,381.100891 340.414673,382.886169 334.061615,385.494873 
	C326.505371,388.597656 318.904327,391.633789 311.562408,395.193237 
	C308.931183,396.468903 306.594238,396.097443 305.404938,394.480438 
	C303.711365,392.177856 307.221069,391.741547 307.972565,390.333466 
	C311.499268,383.725372 318.815430,381.308075 323.373596,375.619385 
	C328.022980,369.816833 335.022827,365.851593 342.255646,363.431976 
	C353.679108,359.610474 363.885590,353.211487 375.024353,348.732788 
	C385.398376,344.561523 395.631744,339.817596 405.731995,334.924622 
	C410.358643,332.683289 414.945251,330.437805 419.748138,328.594635 
	C421.133575,328.062927 422.170837,327.676392 423.304932,328.811401 
	C424.726685,330.234253 423.596985,331.413116 423.101929,332.788422 
	C422.606018,334.166199 421.646057,335.129913 420.621613,335.795685 
	C413.426483,340.471527 409.373199,348.232758 402.642761,353.862732 
z"/>
<path fill="#FFFFFF" opacity="1.000000" stroke="none" 
	d="
M131.285919,307.221283 
	C128.483978,310.914673 124.485664,310.410889 121.925156,306.811035 
	C117.884048,301.129639 116.039085,294.423981 112.765388,288.407227 
	C112.051147,287.094604 111.938904,286.205597 112.575424,284.804260 
	C115.796173,277.713654 118.961174,270.592773 121.921852,263.390472 
	C124.767860,256.467133 126.273972,249.062393 129.693558,242.296738 
	C130.625061,240.453751 131.215881,239.952087 133.035400,239.970276 
	C140.352280,240.043411 147.670715,240.044632 154.987686,239.976364 
	C157.509064,239.952850 158.345734,240.115112 157.470642,243.281860 
	C154.729767,253.200409 149.241470,261.948456 146.026535,271.635468 
	C142.012573,283.729950 134.930008,294.572571 131.285919,307.221283 
z"/>
<path fill="#FBFBFB" opacity="1.000000" stroke="none" 
	d="
M128.985260,498.645325 
	C127.295723,506.911407 122.536354,511.311279 114.057793,511.808350 
	C106.436607,512.255127 98.771629,511.917267 91.127907,512.043091 
	C89.142426,512.075745 88.585503,511.357513 88.591965,509.449707 
	C88.647736,492.994232 88.648834,476.538391 88.592499,460.082916 
	C88.585518,458.043213 89.455605,457.554993 91.287567,457.600189 
	C98.922371,457.788605 106.596794,457.078613 114.186119,458.168732 
	C120.444901,459.067719 125.834419,461.740662 127.523140,468.433319 
	C129.069687,474.562500 127.597275,479.977081 121.322914,483.898682 
	C127.403358,486.987335 129.803253,491.825531 128.985260,498.645325 
z"/>
<path fill="#FBFBFB" opacity="1.000000" stroke="none" 
	d="
M284.307678,457.621948 
	C291.259338,457.788788 297.799103,457.494019 304.222565,458.223511 
	C315.760620,459.533752 321.559418,470.005737 316.313141,479.149017 
	C315.197906,481.092712 313.381378,482.220917 311.612183,483.981659 
	C315.524902,486.487976 318.786163,489.318390 319.036133,494.384399 
	C319.541748,504.632751 314.465057,511.053070 304.192596,511.783600 
	C296.564941,512.326050 288.870117,511.854462 281.211090,512.057190 
	C277.701508,512.150085 278.652649,509.785400 278.647491,508.021912 
	C278.602997,492.859924 278.819580,477.693542 278.499451,462.538208 
	C278.405457,458.088654 279.938263,456.959595 284.307678,457.621948 
z"/>
<path fill="#F9F9F9" opacity="1.000000" stroke="none" 
	d="
M480.878479,503.055847 
	C481.958710,506.055969 482.950439,508.675873 484.212433,512.009766 
	C480.543060,512.009766 477.317627,511.928253 474.098297,512.033325 
	C471.065521,512.132263 471.161591,509.664001 470.844177,507.925110 
	C469.812866,502.275208 466.881317,499.652557 460.994049,500.870392 
	C459.876221,501.101654 458.669525,500.903595 457.503845,500.903595 
	C449.122711,500.903595 448.997833,500.862488 446.403656,508.749786 
	C445.598907,511.196472 444.624176,512.318237 441.945435,512.065247 
	C439.311157,511.816345 436.635010,512.010986 433.619446,512.010986 
	C433.730469,509.002197 435.198975,506.615021 436.119537,504.112610 
	C441.388641,489.788971 446.960968,475.571869 451.934235,461.147552 
	C453.373657,456.972839 456.032562,457.697113 458.898834,457.612671 
	C461.746582,457.528809 463.992310,457.372314 465.319305,461.185089 
	C470.169891,475.121918 475.586517,488.861694 480.878479,503.055847 
z"/>
<path fill="#FAFAFA" opacity="1.000000" stroke="none" 
	d="
M263.625488,512.006531 
	C259.268799,509.715271 258.094696,505.338196 255.608276,501.956604 
	C254.337601,500.228424 253.192886,498.407623 251.987366,496.622955 
	C248.057877,499.519165 247.695251,499.539398 248.147629,507.650024 
	C248.411636,512.383240 246.070297,512.238708 242.860733,512.032532 
	C239.932404,511.844360 236.805283,513.198425 236.947632,507.698975 
	C237.369690,491.394073 237.330139,475.066132 236.971863,458.758179 
	C236.848236,453.131378 240.310852,454.858002 243.092499,454.621521 
	C246.109634,454.364990 248.359482,454.303833 248.134964,458.776459 
	C247.703354,467.374786 248.009247,476.010101 248.009247,485.847412 
	C250.669312,482.773071 253.080505,480.747162 254.521927,478.177338 
	C258.788849,470.570099 265.421600,470.872772 272.975891,472.100433 
	C269.080444,476.621033 265.617065,481.076904 261.676544,485.060791 
	C259.018463,487.748077 259.303650,489.650055 261.379364,492.497589 
	C265.838409,498.614929 269.904083,505.018951 274.603699,512.008972 
	C270.557709,512.008972 267.304718,512.008972 263.625488,512.006531 
z"/>
<path fill="#F7F7F7" opacity="1.000000" stroke="none" 
	d="
M156.479294,507.344543 
	C151.959686,497.725067 155.770630,490.158875 165.776932,488.020905 
	C168.397690,487.460938 171.026138,487.333557 173.688858,487.223785 
	C175.113800,487.165009 177.406342,488.453674 177.852966,486.025024 
	C178.282028,483.691772 177.630844,481.185822 175.357086,479.953186 
	C172.299057,478.295380 169.285721,478.468750 166.959641,481.499176 
	C165.528427,483.363922 157.517822,484.979736 155.911148,483.655151 
	C155.605072,483.402863 155.388397,482.841217 155.410461,482.437622 
	C155.445862,481.790100 155.688644,481.147003 155.889374,480.516541 
	C158.086472,473.615417 166.476547,469.761169 176.361618,471.104309 
	C183.897369,472.128174 188.610855,477.314606 188.913696,484.840759 
	C189.273224,493.775299 187.906525,502.783539 190.280014,512.304932 
	C186.166611,510.778656 181.701248,514.342163 178.205521,509.960297 
	C177.505295,509.082550 176.468796,510.425964 175.639282,510.850250 
	C168.606018,514.447876 162.362961,513.396851 156.479294,507.344543 
z"/>
<path fill="#F7F7F7" opacity="1.000000" stroke="none" 
	d="
M330.457703,476.487427 
	C338.119812,470.279480 346.960510,469.161102 354.322784,473.231201 
	C361.286194,477.080841 364.974884,486.062622 363.590729,495.798218 
	C362.331818,504.652954 357.399750,510.403564 349.343323,512.410400 
	C334.805115,516.031677 323.012970,504.052368 325.444550,488.084137 
	C326.077454,483.927856 327.486694,480.053070 330.457703,476.487427 
z"/>
<path fill="#FFFFFF" opacity="1.000000" stroke="none" 
	d="
M169.729645,393.232544 
	C167.093475,386.558105 162.156540,381.696533 158.990829,375.737610 
	C158.075500,374.014618 158.206635,372.966675 159.048355,371.930511 
	C165.365112,364.154602 168.610550,354.373016 175.434952,346.941284 
	C175.647858,346.709442 175.892868,346.430054 175.945572,346.140564 
	C176.306976,344.155670 176.517120,341.416077 178.998535,341.694885 
	C182.411377,342.078430 180.638992,345.297150 180.977905,347.303101 
	C182.044418,353.615509 183.740387,359.780579 185.157883,365.995544 
	C186.712585,372.812164 190.464951,380.139465 184.117264,387.072418 
	C181.140457,390.323639 179.292068,394.641174 177.132355,398.585022 
	C176.561417,399.627625 176.259979,400.903076 174.976089,400.884308 
	C173.703720,400.865723 173.328690,399.653412 172.849258,398.533417 
	C172.094910,396.771240 170.967957,395.168549 169.729645,393.232544 
z"/>
<path fill="#F9F9F9" opacity="1.000000" stroke="none" 
	d="
M396.090607,471.616028 
	C398.309845,471.616058 400.116852,471.616058 402.924347,471.616058 
	C399.436340,477.613831 396.410553,483.023376 393.166046,488.298431 
	C391.785065,490.543701 391.730621,492.302521 393.181366,494.610046 
	C396.607605,500.059906 399.706696,505.715454 402.886993,511.199738 
	C391.691345,515.755188 388.484222,507.556335 384.706818,499.491455 
	C383.548676,501.473236 382.674530,502.931000 381.836548,504.409210 
	C376.961823,513.007996 376.964691,513.009644 365.968994,511.504913 
	C368.999939,506.252869 371.655853,500.902893 375.031433,496.053955 
	C377.440582,492.593201 377.078125,489.974426 374.954651,486.709320 
	C371.975311,482.128174 369.398773,477.285065 366.112122,471.628326 
	C370.745911,472.066833 375.231506,469.874664 378.352081,472.876251 
	C381.084717,475.504822 382.380127,479.627563 384.185486,482.866180 
	C388.915070,479.857971 387.217163,470.743866 396.090607,471.616028 
z"/>
<path fill="#F7F7F7" opacity="1.000000" stroke="none" 
	d="
M214.768097,479.936188 
	C209.578812,479.630951 207.448608,482.318817 206.781326,486.664581 
	C206.221924,490.307648 206.223312,493.939850 206.844284,497.579346 
	C207.437897,501.058411 209.274200,503.487396 212.860367,503.919037 
	C216.052475,504.303223 218.689011,503.209167 220.175964,500.001373 
	C220.963821,498.301697 228.944702,496.966461 230.355316,498.255493 
	C231.593491,499.386963 230.637650,500.722687 230.293365,501.894104 
	C228.243668,508.867950 221.587097,513.138367 213.251282,512.907043 
	C204.746597,512.670959 198.191315,507.549133 196.194183,499.520996 
	C194.928879,494.434784 194.925522,489.322479 196.184921,484.235748 
	C198.207550,476.066315 204.635315,471.098785 213.245422,470.984985 
	C222.525421,470.862305 228.084030,474.668304 230.346756,482.344513 
	C231.336365,485.701752 230.916519,487.349457 226.946976,486.950531 
	C223.849319,486.639221 220.240005,487.975525 219.425873,482.964935 
	C219.153046,481.285797 217.140640,480.211365 214.768097,479.936188 
z"/>
<path fill="#F6F6F6" opacity="1.000000" stroke="none" 
	d="
M136.606400,473.001465 
	C136.606400,467.669556 136.728409,462.832733 136.556549,458.006378 
	C136.466339,455.472900 137.115860,454.244568 139.858047,454.574799 
	C141.336349,454.752838 142.866043,454.729248 144.350693,454.579651 
	C146.941452,454.318634 147.783127,455.289368 147.766205,457.944244 
	C147.657928,474.940521 147.669998,491.938019 147.757370,508.934540 
	C147.769608,511.315796 147.092438,512.303101 144.658203,512.045654 
	C143.175079,511.888824 141.642288,511.862946 140.166260,512.050049 
	C137.335968,512.408752 136.504074,511.346130 136.541946,508.493866 
	C136.696777,496.831329 136.606445,485.165527 136.606400,473.001465 
z"/>
<path fill="#F3F3F3" opacity="1.000000" stroke="none" 
	d="
M490.318542,510.585266 
	C490.283752,494.163269 490.399384,478.208374 490.189789,462.257782 
	C490.141785,458.604950 490.946381,456.960907 494.801056,457.559113 
	C496.261658,457.785797 497.789307,457.654724 499.281525,457.584167 
	C501.089478,457.498657 501.963379,458.032166 501.954865,460.093781 
	C501.887024,476.545380 501.910126,492.997345 501.928833,509.449219 
	C501.930481,510.894226 501.867371,512.238098 499.921539,512.000305 
	C496.737549,511.611115 493.374817,513.020508 490.318542,510.585266 
z"/>
<path fill="#FFFFFF" opacity="1.000000" stroke="none" 
	d="
M258.002625,383.983459 
	C263.078735,376.085449 269.991547,371.620087 278.872772,369.407654 
	C283.425446,368.273499 287.691315,365.511230 291.719574,362.915009 
	C294.444519,361.158691 295.483612,363.278656 296.605286,364.423401 
	C297.948578,365.794281 296.572815,367.250946 295.365906,368.097656 
	C287.411621,373.678162 282.537872,382.275360 275.248535,388.532776 
	C272.757965,390.670715 269.829010,391.809174 267.034851,392.808838 
	C262.063873,394.587372 257.091248,396.361572 252.211517,398.376984 
	C251.115860,398.829498 249.868256,399.692749 249.258011,398.383911 
	C248.686539,397.158295 248.276169,394.870361 249.536270,394.279785 
	C253.958847,392.207062 254.455276,387.028534 258.002625,383.983459 
z"/>
<path fill="#F4F4F4" opacity="1.000000" stroke="none" 
	d="
M422.851685,484.282349 
	C429.022614,484.297058 430.285065,486.057098 429.071808,491.723755 
	C428.717041,493.380859 427.825012,493.396851 426.636047,493.397156 
	C421.308014,493.398407 415.977570,493.300293 410.652649,493.429504 
	C406.298187,493.535156 408.270264,490.342194 408.055054,488.493134 
	C407.827179,486.535492 407.153229,483.989502 410.888245,484.228882 
	C414.702087,484.473297 418.543823,484.282562 422.851685,484.282349 
z"/>
<path fill="#030303" opacity="1.000000" stroke="none" 
	d="
M117.131561,498.966125 
	C114.328819,502.172943 103.838814,504.512695 100.874443,502.948273 
	C100.209625,502.597382 99.990753,502.077240 100.006813,501.371521 
	C100.025658,500.543610 100.009735,499.714722 100.002022,498.886322 
	C99.903862,488.347839 99.903542,488.347809 110.227669,488.688263 
	C116.463684,488.893921 118.770622,492.138000 117.131561,498.966125 
z"/>
<path fill="#030303" opacity="1.000000" stroke="none" 
	d="
M110.461929,480.156067 
	C99.343208,480.551331 98.251511,479.263458 99.950546,468.821686 
	C100.192383,467.335480 100.642975,466.824646 102.081207,466.878601 
	C104.574104,466.972168 107.082573,466.815186 109.563744,467.017700 
	C113.125122,467.308411 116.131500,468.532684 116.518997,472.724304 
	C116.900528,476.851532 115.072502,479.389069 110.461929,480.156067 
z"/>
<path fill="#030303" opacity="1.000000" stroke="none" 
	d="
M306.658813,491.386475 
	C309.169891,499.008301 306.452881,502.812164 298.837891,502.997314 
	C290.000244,503.212189 290.316711,503.196259 289.876831,494.433868 
	C289.635925,489.634705 290.929108,487.863647 295.740845,488.644470 
	C299.361664,489.232117 303.477325,487.478912 306.658813,491.386475 
z"/>
<path fill="#030303" opacity="1.000000" stroke="none" 
	d="
M303.673279,479.121643 
	C299.652710,481.048523 295.762512,480.045074 291.984131,480.302795 
	C290.879211,480.378204 290.015930,480.127991 290.019440,478.759552 
	C290.028351,475.261017 290.017151,471.762482 290.034424,468.264008 
	C290.037994,467.546631 290.309387,466.928802 291.153717,466.946960 
	C295.447327,467.039337 299.923645,466.043396 303.915009,468.251221 
	C307.467163,470.216095 307.412018,474.913330 303.673279,479.121643 
z"/>
<path fill="#121212" opacity="1.000000" stroke="none" 
	d="
M464.516235,489.513611 
	C465.260223,491.781555 463.958618,491.675018 462.771759,491.676331 
	C459.454834,491.680054 456.137909,491.677643 452.109680,491.677643 
	C454.198486,485.242004 456.198120,479.081024 458.576080,471.754425 
	C460.733978,478.253540 462.541168,483.696320 464.516235,489.513611 
z"/>
<path fill="#070707" opacity="1.000000" stroke="none" 
	d="
M175.925903,493.894592 
	C179.546600,496.139893 178.417679,499.201569 177.022415,501.432098 
	C175.198929,504.347076 171.832001,504.886047 168.563934,503.999481 
	C166.161194,503.347626 165.195236,501.448059 165.562531,498.984039 
	C166.066299,495.604553 168.495575,494.370422 171.490829,493.954102 
	C172.796341,493.772675 174.145172,493.903046 175.925903,493.894592 
z"/>
<path fill="#070707" opacity="1.000000" stroke="none" 
	d="
M347.890259,503.165894 
	C341.352020,504.725098 337.957886,502.585754 336.770844,496.564484 
	C336.051392,492.914978 336.143036,489.250885 337.134430,485.713593 
	C337.978607,482.701385 339.837372,480.382416 343.255463,479.927124 
	C346.300079,479.521576 348.877899,480.440125 350.699371,482.945557 
	C354.304199,487.904083 352.936829,498.818970 347.890259,503.165894 
z"/>
</svg>